<svg width="69" height="13" viewBox="0 0 69 13" fill="none" xmlns="http://www.w3.org/2000/svg">
<path d="M2.28 12H0.296V0.304H2.28L6.056 9.616L9.832 0.304H11.848V12H9.864V8.4C9.864 7.81333 9.864 7.32267 9.864 6.928C9.864 6.52267 9.86933 6.18133 9.88 5.904C9.89067 5.62667 9.90133 5.38133 9.912 5.168C9.92267 4.95467 9.944 4.74133 9.976 4.528L7 12H5.112L2.152 4.544C2.20533 4.896 2.23733 5.344 2.248 5.888C2.26933 6.432 2.28 7.072 2.28 7.808V12ZM25.0926 6.144C25.0926 7.328 24.8526 8.37867 24.3726 9.296C23.8926 10.2027 23.226 10.912 22.3726 11.424C21.5193 11.936 20.5326 12.192 19.4126 12.192C18.3033 12.192 17.322 11.936 16.4686 11.424C15.6153 10.912 14.9486 10.2027 14.4686 9.296C13.9993 8.38933 13.7646 7.344 13.7646 6.16C13.7646 4.96533 14.0046 3.91467 14.4846 3.008C14.9646 2.09067 15.626 1.376 16.4686 0.863999C17.322 0.352 18.3086 0.0959997 19.4286 0.0959997C20.5486 0.0959997 21.53 0.352 22.3726 0.863999C23.226 1.376 23.8926 2.08533 24.3726 2.992C24.8526 3.89867 25.0926 4.94933 25.0926 6.144ZM22.9486 6.144C22.9486 5.312 22.8046 4.592 22.5166 3.984C22.2286 3.376 21.8233 2.90667 21.3006 2.576C20.778 2.23467 20.154 2.064 19.4286 2.064C18.714 2.064 18.09 2.23467 17.5566 2.576C17.034 2.90667 16.6286 3.376 16.3406 3.984C16.0526 4.592 15.9086 5.312 15.9086 6.144C15.9086 6.976 16.0526 7.70133 16.3406 8.32C16.6286 8.928 17.034 9.39733 17.5566 9.728C18.09 10.0587 18.714 10.224 19.4286 10.224C20.154 10.224 20.778 10.0587 21.3006 9.728C21.8233 9.38667 22.2286 8.912 22.5166 8.304C22.8046 7.68533 22.9486 6.96533 22.9486 6.144ZM29.0308 12H27.0148V0.304H29.0468L35.1267 9.504H34.5347V0.304H36.5508V12H34.5347L28.4388 2.816H29.0308V12ZM43.3478 12H39.1398V0.304H43.2358C44.3878 0.304 45.4011 0.554667 46.2758 1.056C47.1504 1.54667 47.8331 2.23467 48.3238 3.12C48.8251 3.99467 49.0758 5.01333 49.0758 6.176C49.0758 7.31733 48.8304 8.33067 48.3398 9.216C47.8598 10.0907 47.1878 10.7733 46.3238 11.264C45.4704 11.7547 44.4784 12 43.3478 12ZM41.1878 1.248V11.072L40.2118 10.112H43.1558C43.9344 10.112 44.6064 9.952 45.1718 9.632C45.7371 9.312 46.1691 8.85867 46.4678 8.272C46.7664 7.68533 46.9158 6.98667 46.9158 6.176C46.9158 5.344 46.7611 4.63467 46.4518 4.048C46.1424 3.45067 45.6998 2.992 45.1238 2.672C44.5478 2.352 43.8544 2.192 43.0438 2.192H40.2118L41.1878 1.248ZM51.413 12H49.301L53.525 0.304H55.621L59.845 12H57.685L56.741 9.296H52.373L51.413 12ZM54.309 3.792L52.965 7.568H56.149L54.805 3.792C54.7623 3.632 54.7143 3.472 54.661 3.312C54.6077 3.152 54.5757 3.01333 54.565 2.896C54.5437 3.00267 54.5063 3.14133 54.453 3.312C54.4103 3.472 54.3623 3.632 54.309 3.792ZM62.9245 7.392L58.9725 0.304H61.2605L63.5645 4.56C63.6498 4.72 63.7245 4.86933 63.7885 5.008C63.8525 5.14667 63.9165 5.28533 63.9805 5.424C64.0338 5.328 64.0765 5.23733 64.1085 5.152C64.1405 5.06667 64.1778 4.98133 64.2205 4.896C64.2738 4.8 64.3325 4.688 64.3965 4.56L66.6845 0.304H68.9085L64.9725 7.392V12H62.9245V7.392Z" fill="#202020"/>
</svg>
